<?xml version="1.0" encoding="iso-8859-1"?>
<!-- Uploaded to: SVG Repo, www.svgrepo.com, Generator: SVG Repo Mixer Tools -->
<svg height="800px" width="800px" version="1.1" id="Layer_1" xmlns="http://www.w3.org/2000/svg" xmlns:xlink="http://www.w3.org/1999/xlink" 
	 viewBox="0 0 512.001 512.001" xml:space="preserve">
<path style="fill:#CCCCCC;" d="M469.865,209.735h-41.8c-4.609-28.746-15.819-56.636-33.632-81.232l29.547-29.547l-42.861-42.861
	l-29.547,29.547c-24.595-17.813-52.485-29.023-81.232-33.632v-41.8h-60.615v41.8c-28.746,4.609-56.636,15.819-81.232,33.632
	L98.947,56.095L56.084,98.957l29.547,29.547C67.819,153.1,56.609,180.989,52,209.736h-41.8v60.615H52
	c4.609,28.746,15.819,56.636,33.632,81.232l-29.547,29.547l42.861,42.861l29.547-29.547c24.595,17.813,52.485,29.023,81.232,33.632
	v41.8h60.615v-41.8c38.209-6.126,74.912-23.904,104.366-53.358c29.454-29.454,47.233-66.157,53.358-104.366h41.8v-60.616H469.865z"
	/>
<circle style="fill:#FFE6B8;" cx="240.701" cy="240.713" r="136.159"/>
<path style="fill:#FFAD61;" d="M452.894,493.421l-97.206-97.206l40.516-40.516l97.206,97.206c11.189,11.189,11.189,29.328,0,40.516
	l0,0C482.221,504.608,464.082,504.608,452.894,493.421z"/>
<g>
	<path style="fill:#4D3D36;" d="M500.622,445.692l-93.886-93.886c14.464-21.501,24.58-45.579,29.834-71.257h33.296
		c5.632,0,10.199-4.566,10.199-10.199v-60.615c0-5.633-4.567-10.199-10.199-10.199h-33.301
		c-5.118-24.844-14.992-48.697-28.909-69.831l23.536-23.536c1.912-1.912,2.987-4.507,2.987-7.212c0-2.705-1.075-5.3-2.987-7.212
		l-42.861-42.861c-3.984-3.983-10.44-3.983-14.425,0L350.37,72.421c-21.136-13.918-44.987-23.792-69.831-28.908V10.21
		c0-5.633-4.567-10.199-10.199-10.199h-60.616c-5.632,0-10.199,4.566-10.199,10.199v33.301
		c-24.843,5.117-48.695,14.991-69.831,28.908l-23.536-23.536c-3.984-3.983-10.44-3.983-14.425,0L48.873,91.744
		c-1.912,1.912-2.987,4.507-2.987,7.212c0,2.705,1.075,5.299,2.987,7.212l23.536,23.536c-13.918,21.137-23.791,44.988-28.908,69.831
		H10.199C4.567,199.535,0,204.101,0,209.734v60.615c0,5.633,4.567,10.199,10.199,10.199h33.301
		c5.117,24.843,14.99,48.695,28.908,69.831l-23.536,23.536c-3.983,3.983-3.983,10.441,0,14.425L91.734,431.2
		c3.984,3.983,10.44,3.983,14.425,0l23.536-23.537c21.136,13.918,44.987,23.792,69.831,28.909v33.301
		c0,5.633,4.567,10.199,10.199,10.199h60.616c5.632,0,10.199-4.566,10.199-10.199v-33.295c25.679-5.254,49.756-15.37,71.257-29.834
		l93.886,93.886c7.574,7.573,17.522,11.36,27.471,11.36s19.897-3.787,27.471-11.36c7.337-7.337,11.378-17.093,11.378-27.471
		C512,462.785,507.959,453.03,500.622,445.692z M268.726,418.005c-4.947,0.794-8.585,5.061-8.585,10.071v31.601h-40.217v-31.601
		c0-5.01-3.638-9.277-8.585-10.071c-27.664-4.436-54.243-15.44-76.863-31.822c-4.057-2.938-9.65-2.495-13.195,1.048l-22.334,22.335
		l-28.437-28.437l22.334-22.334c3.543-3.544,3.987-9.136,1.047-13.195c-16.383-22.621-27.386-49.2-31.82-76.863
		c-0.792-4.947-5.061-8.585-10.071-8.585H20.398v-40.216H52c5.01,0,9.278-3.638,10.071-8.585
		c4.436-27.664,15.439-54.242,31.82-76.863c2.939-4.058,2.495-9.65-1.047-13.195L70.509,98.957L98.947,70.52l22.334,22.334
		c3.543,3.544,9.135,3.987,13.196,1.048c22.62-16.383,49.198-27.387,76.862-31.822c4.947-0.793,8.585-5.061,8.585-10.071V20.409
		h40.217V52.01c0,5.01,3.638,9.277,8.585,10.071c27.664,4.435,54.243,15.439,76.862,31.822c4.059,2.938,9.652,2.495,13.196-1.048
		l22.334-22.334l28.437,28.437l-22.334,22.334c-3.543,3.544-3.987,9.136-1.047,13.195c16.382,22.619,27.386,49.198,31.822,76.864
		c0.794,4.947,5.061,8.585,10.071,8.585h31.601v40.216h-31.601c-5.01,0-9.278,3.638-10.071,8.585
		c-5.491,34.246-20.465,65.625-43.49,91.354l-23.401-23.401c22.383-25.713,35.955-59.289,35.955-95.977
		c0-80.701-65.654-146.357-146.355-146.357S94.347,160.012,94.347,240.713s65.654,146.355,146.355,146.355
		c36.688,0,70.263-13.572,95.977-35.954l23.401,23.401C334.35,397.54,302.97,412.514,268.726,418.005z M240.702,366.67
		c-69.454,0-125.957-56.504-125.957-125.957s56.504-125.958,125.957-125.958s125.957,56.505,125.957,125.958
		S310.156,366.67,240.702,366.67z M486.197,486.209c-7.194,7.194-18.898,7.194-26.092,0l-89.994-89.994l26.093-26.093l89.993,89.994
		C493.392,467.31,493.392,479.014,486.197,486.209z"/>
	<path style="fill:#4D3D36;" d="M204.341,140.309c-26.468,9.587-48.49,29.736-60.418,55.28c-2.384,5.104-0.178,11.174,4.925,13.557
		c1.396,0.652,2.864,0.961,4.309,0.961c3.84,0,7.517-2.179,9.248-5.886c9.654-20.672,27.472-36.976,48.883-44.732
		c5.296-1.918,8.035-7.767,6.116-13.063C215.486,141.129,209.639,138.389,204.341,140.309z"/>
	<path style="fill:#4D3D36;" d="M145.253,222.814c-5.597-0.451-10.528,3.745-10.973,9.361c-0.224,2.826-0.338,5.698-0.338,8.538
		c0,5.633,4.567,10.199,10.199,10.199s10.199-4.566,10.199-10.199c0-2.303,0.093-4.632,0.274-6.925
		C155.06,228.173,150.869,223.26,145.253,222.814z"/>
</g>
</svg>