<!DOCTYPE svg PUBLIC "-//W3C//DTD SVG 1.1//EN" "http://www.w3.org/Graphics/SVG/1.1/DTD/svg11.dtd">
<!-- Uploaded to: SVG Repo, www.svgrepo.com, Transformed by: SVG Repo Mixer Tools -->
<svg fill="#000000" width="800px" height="800px" viewBox="0 0 24 24" xmlns="http://www.w3.org/2000/svg" stroke="#000000" stroke-width="0.00024000000000000003">
<g id="SVGRepo_bgCarrier" stroke-width="0"/>
<g id="SVGRepo_tracerCarrier" stroke-linecap="round" stroke-linejoin="round"/>
<g id="SVGRepo_iconCarrier">
<path d="M12,1a1,1,0,0,0-1,1V6.09A6.006,6.006,0,0,0,6,12v1a1,1,0,0,0,0,2H18a1,1,0,0,0,0-2V12a6.006,6.006,0,0,0-5-5.91V2A1,1,0,0,0,12,1Zm4,11v1H8V12a4,4,0,0,1,8,0ZM3.2,21.4l3-4a1,1,0,1,1,1.6,1.2l-3,4a1,1,0,1,1-1.6-1.2Zm14.6-4,3,4a1,1,0,1,1-1.6,1.2l-3-4a1,1,0,0,1,1.6-1.2ZM12,17a1,1,0,0,1,1,1v4a1,1,0,0,1-2,0V18A1,1,0,0,1,12,17Z"/>
</g>
</svg>